<svg width="18" height="18" viewBox="0 0 18 18" fill="none" xmlns="http://www.w3.org/2000/svg">
<g clip-path="url(#clip0_359_199)">
<path d="M9.0641 0.445349C4.12894 0.44535 0.128205 4.21895 0.128205 8.87392C0.128206 13.5289 4.12894 17.3025 9.0641 17.3025C13.9993 17.3025 18 13.5289 18 8.87392C18 4.21895 13.9993 0.445349 9.0641 0.445349Z" fill="#F55B4B"/>
<path d="M0.681846 11.8002L17.4468 11.8002C16.1849 15.0129 12.9087 17.3025 9.06414 17.3025C5.21961 17.3025 1.94334 15.0129 0.681846 11.8002Z" fill="#DB1B1B"/>
<path d="M0.68173 5.94803L17.4467 5.94803C18.1861 7.83645 18.1861 9.91188 17.4467 11.8003L0.68173 11.8003C0.557354 11.4838 0.453493 11.1604 0.37072 10.832C-0.0371268 9.21059 0.071056 7.51174 0.68173 5.94803Z" fill="#3586CB"/>
<path d="M9.06414 0.44539C10.8899 0.445337 12.672 0.972635 14.1706 1.95637C15.6692 2.9401 16.8125 4.33309 17.4468 5.948L0.681845 5.948C0.81168 5.61642 0.963831 5.29299 1.13737 4.9797C1.89259 3.61236 3.03096 2.46661 4.42859 1.66713C5.82622 0.867649 7.42957 0.445072 9.06414 0.44539Z" fill="white"/>
<path d="M7.89479 17.231C11.2241 16.8205 13.9768 14.6817 15.1081 11.7986L17.4468 11.7986C16.1849 15.0129 12.9087 17.3025 9.06414 17.3025C8.67313 17.3025 8.28253 17.2787 7.89479 17.231Z" fill="#C11A1A"/>
<path d="M15.6612 8.874C15.6625 7.87543 15.4751 6.88463 15.108 5.94803L17.4467 5.94803C18.1861 7.83645 18.1861 9.91188 17.4467 11.8003L15.108 11.8003C15.2316 11.4837 15.3348 11.1604 15.4169 10.832C15.5792 10.1906 15.6612 9.53343 15.6612 8.874Z" fill="#366FCA"/>
<path d="M7.89479 0.516836C8.28253 0.469178 8.67313 0.445312 9.06414 0.44539C10.8899 0.445337 12.672 0.972635 14.1706 1.95637C15.6692 2.9401 16.8125 4.33309 17.4468 5.948L15.1081 5.948C14.5433 4.50929 13.5732 3.24313 12.3021 2.28588C11.0311 1.32863 9.50728 0.716538 7.89479 0.515519L7.89479 0.516836Z" fill="#E2E2E2"/>
<path d="M1.70763 7.7425C1.35928 7.7425 1.07689 8.00886 1.07689 8.33744C1.07689 8.66601 1.35928 8.93237 1.70763 8.93237C2.05598 8.93237 2.33838 8.66601 2.33838 8.33744C2.33838 8.00886 2.05598 7.7425 1.70763 7.7425Z" fill="#4C9CD8"/>
<path d="M1.70762 9.15519C1.46087 9.15519 1.26083 9.34387 1.26083 9.57662C1.26083 9.80937 1.46087 9.99805 1.70762 9.99805C1.95438 9.99805 2.15442 9.80937 2.15442 9.57662C2.15442 9.34387 1.95438 9.15519 1.70762 9.15519Z" fill="#4C9CD8"/>
</g>
<defs>
<clipPath id="clip0_359_199">
<rect width="17.8718" height="16.8571" fill="white" transform="translate(18 17.3025) rotate(180)"/>
</clipPath>
</defs>
</svg>
