<svg width="18" height="18" viewBox="0 0 18 18" fill="none" xmlns="http://www.w3.org/2000/svg">
<g clip-path="url(#clip0_359_181)">
<path d="M9.06407 17.1092C13.9992 17.1092 18 13.3356 18 8.68065C18 4.02568 13.9992 0.252075 9.06407 0.252075C4.12891 0.252075 0.128174 4.02568 0.128174 8.68065C0.128174 13.3356 4.12891 17.1092 9.06407 17.1092Z" fill="#F0F0F0"/>
<path d="M1.97542 3.54919C1.2735 4.41059 0.744219 5.40341 0.436035 6.48198H5.08473L1.97542 3.54919Z" fill="#0052B4"/>
<path d="M17.6923 6.48195C17.3841 5.40342 16.8548 4.41059 16.1529 3.54919L13.0437 6.48195H17.6923Z" fill="#0052B4"/>
<path d="M0.436035 10.8795C0.744254 11.958 1.27353 12.9509 1.97542 13.8122L5.08462 10.8795H0.436035Z" fill="#0052B4"/>
<path d="M14.5044 1.9945C13.5912 1.33243 12.5386 0.8332 11.3951 0.54248V4.92722L14.5044 1.9945Z" fill="#0052B4"/>
<path d="M3.62366 15.3669C4.5369 16.029 5.58948 16.5282 6.73293 16.8189V12.4342L3.62366 15.3669Z" fill="#0052B4"/>
<path d="M6.7329 0.54248C5.58945 0.8332 4.53686 1.33243 3.62366 1.99447L6.7329 4.92718V0.54248Z" fill="#0052B4"/>
<path d="M11.3953 16.8189C12.5387 16.5282 13.5913 16.029 14.5045 15.3669L11.3953 12.4342V16.8189Z" fill="#0052B4"/>
<path d="M13.0437 10.8795L16.1529 13.8123C16.8548 12.9509 17.3841 11.958 17.6923 10.8795H13.0437Z" fill="#0052B4"/>
<path d="M17.9243 7.58128H10.2297H10.2296V0.323422C9.84809 0.276571 9.4591 0.252075 9.06407 0.252075C8.66897 0.252075 8.28005 0.276571 7.89853 0.323422V7.58121V7.58124H0.203815C0.154144 7.94114 0.128174 8.30804 0.128174 8.68065C0.128174 9.05332 0.154144 9.42015 0.203815 9.78002H7.89846H7.8985V17.0379C8.28005 17.0847 8.66897 17.1092 9.06407 17.1092C9.4591 17.1092 9.84809 17.0848 10.2296 17.0379V9.78008V9.78005H17.9243C17.974 9.42016 18 9.05332 18 8.68065C18 8.30804 17.974 7.94114 17.9243 7.58128Z" fill="#D80027"/>
<path d="M11.395 10.8794L15.3825 14.6405C15.5659 14.4676 15.7409 14.2868 15.9078 14.0994L12.4939 10.8794H11.395V10.8794Z" fill="#D80027"/>
<path d="M6.73302 10.8794H6.73295L2.74548 14.6405C2.92881 14.8135 3.12048 14.9785 3.31916 15.1359L6.73302 11.9158V10.8794Z" fill="#D80027"/>
<path d="M6.73286 6.48192V6.48186L2.74536 2.7207C2.56196 2.89362 2.38701 3.07441 2.22009 3.26181L5.63399 6.48189H6.73286V6.48192Z" fill="#D80027"/>
<path d="M11.395 6.48194L15.3826 2.72075C15.1992 2.54777 15.0076 2.38275 14.8089 2.22534L11.395 5.44542V6.48194Z" fill="#D80027"/>
</g>
<defs>
<clipPath id="clip0_359_181">
<rect width="17.8718" height="16.8571" fill="white" transform="translate(0.128174 0.252075)"/>
</clipPath>
</defs>
</svg>
