<svg width="20" height="20" viewBox="0 0 20 20" fill="none" xmlns="http://www.w3.org/2000/svg">
<path d="M8.05556 11.2222H3.72222C3.53068 11.2222 3.34698 11.2983 3.21153 11.4338C3.07609 11.5692 3 11.7529 3 11.9444V16.2778C3 16.4693 3.07609 16.653 3.21153 16.7885C3.34698 16.9239 3.53068 17 3.72222 17H8.05556C8.2471 17 8.4308 16.9239 8.56624 16.7885C8.70169 16.653 8.77778 16.4693 8.77778 16.2778V11.9444C8.77778 11.7529 8.70169 11.5692 8.56624 11.4338C8.4308 11.2983 8.2471 11.2222 8.05556 11.2222ZM7.33333 15.5556H4.44444V12.6667H7.33333V15.5556ZM15.2778 4H10.9444C10.7529 4 10.5692 4.07609 10.4338 4.21153C10.2983 4.34698 10.2222 4.53068 10.2222 4.72222V9.05556C10.2222 9.2471 10.2983 9.4308 10.4338 9.56624C10.5692 9.70169 10.7529 9.77778 10.9444 9.77778H15.2778C15.4693 9.77778 15.653 9.70169 15.7885 9.56624C15.9239 9.4308 16 9.2471 16 9.05556V4.72222C16 4.53068 15.9239 4.34698 15.7885 4.21153C15.653 4.07609 15.4693 4 15.2778 4V4ZM14.5556 8.33333H11.6667V5.44444H14.5556V8.33333ZM15.2778 13.3889H13.8333V11.9444C13.8333 11.7529 13.7572 11.5692 13.6218 11.4338C13.4864 11.2983 13.3027 11.2222 13.1111 11.2222C12.9196 11.2222 12.7359 11.2983 12.6004 11.4338C12.465 11.5692 12.3889 11.7529 12.3889 11.9444V13.3889H10.9444C10.7529 13.3889 10.5692 13.465 10.4338 13.6004C10.2983 13.7359 10.2222 13.9196 10.2222 14.1111C10.2222 14.3027 10.2983 14.4864 10.4338 14.6218C10.5692 14.7572 10.7529 14.8333 10.9444 14.8333H12.3889V16.2778C12.3889 16.4693 12.465 16.653 12.6004 16.7885C12.7359 16.9239 12.9196 17 13.1111 17C13.3027 17 13.4864 16.9239 13.6218 16.7885C13.7572 16.653 13.8333 16.4693 13.8333 16.2778V14.8333H15.2778C15.4693 14.8333 15.653 14.7572 15.7885 14.6218C15.9239 14.4864 16 14.3027 16 14.1111C16 13.9196 15.9239 13.7359 15.7885 13.6004C15.653 13.465 15.4693 13.3889 15.2778 13.3889ZM8.05556 4H3.72222C3.53068 4 3.34698 4.07609 3.21153 4.21153C3.07609 4.34698 3 4.53068 3 4.72222V9.05556C3 9.2471 3.07609 9.4308 3.21153 9.56624C3.34698 9.70169 3.53068 9.77778 3.72222 9.77778H8.05556C8.2471 9.77778 8.4308 9.70169 8.56624 9.56624C8.70169 9.4308 8.77778 9.2471 8.77778 9.05556V4.72222C8.77778 4.53068 8.70169 4.34698 8.56624 4.21153C8.4308 4.07609 8.2471 4 8.05556 4V4ZM7.33333 8.33333H4.44444V5.44444H7.33333V8.33333Z" fill="#767676"/>
</svg>
