<svg width="58" height="50" viewBox="0 0 58 50" fill="none" xmlns="http://www.w3.org/2000/svg">
<path d="M10 0.5H48C53.2467 0.5 57.5 4.75329 57.5 10V40C57.5 45.2467 53.2467 49.5 48 49.5H10C4.75329 49.5 0.5 45.2467 0.5 40V10C0.5 4.75329 4.75329 0.5 10 0.5Z" fill="white"/>
<path d="M37.125 15.25H20.875C19.9775 15.25 19.25 15.9775 19.25 16.875V33.125C19.25 34.0225 19.9775 34.75 20.875 34.75H37.125C38.0225 34.75 38.75 34.0225 38.75 33.125V16.875C38.75 15.9775 38.0225 15.25 37.125 15.25Z" fill="white" stroke="#555770" stroke-width="2" stroke-linejoin="round"/>
<path d="M23.0417 19.0431H27.3751V23.3764H23.0417V19.0431Z" stroke="#555770" stroke-width="2" stroke-linejoin="round"/>
<path d="M30.625 19.0431H34.9583V23.3764H30.625V19.0431Z" stroke="#555770" stroke-width="2" stroke-linejoin="round"/>
<path d="M23.0417 26.625H27.3751V30.9583H23.0417V26.625Z" stroke="#555770" stroke-width="2" stroke-linejoin="round"/>
<path d="M30.625 26.625H34.9583V30.9583H30.625V26.625Z" stroke="#555770" stroke-width="2" stroke-linejoin="round"/>
<path d="M10 0.5H48C53.2467 0.5 57.5 4.75329 57.5 10V40C57.5 45.2467 53.2467 49.5 48 49.5H10C4.75329 49.5 0.5 45.2467 0.5 40V10C0.5 4.75329 4.75329 0.5 10 0.5Z" stroke="#00519C"/>
</svg>
