<svg width="33" height="33" viewBox="0 0 33 33" fill="none" xmlns="http://www.w3.org/2000/svg">
<path d="M30.7359 17.1967L24.3834 14.2725V5.89417C24.3805 5.71839 24.3271 5.54716 24.2296 5.40089C24.132 5.25461 23.9945 5.13947 23.8334 5.06917L16.9584 1.90667C16.8377 1.85082 16.7063 1.8219 16.5734 1.8219C16.4404 1.8219 16.3091 1.85082 16.1884 1.90667L9.31339 5.06917C9.15427 5.14281 9.01961 5.26053 8.92538 5.40838C8.83114 5.55623 8.78128 5.72801 8.78172 5.90334V14.2817L2.45672 17.1967C2.2976 17.2703 2.16294 17.388 2.06871 17.5359C1.97447 17.6837 1.92462 17.8555 1.92505 18.0308V26.9958C1.92462 27.1712 1.97447 27.3429 2.06871 27.4908C2.16294 27.6386 2.2976 27.7564 2.45672 27.83L9.33172 30.9925C9.45239 31.0483 9.58376 31.0773 9.71672 31.0773C9.84968 31.0773 9.98105 31.0483 10.1017 30.9925L16.5917 28.0042L23.0817 30.9925C23.2024 31.0483 23.3338 31.0773 23.4667 31.0773C23.5997 31.0773 23.7311 31.0483 23.8517 30.9925L30.7267 27.83C30.8858 27.7564 31.0205 27.6386 31.1147 27.4908C31.209 27.3429 31.2588 27.1712 31.2584 26.9958V18.0308C31.2596 17.8565 31.2111 17.6854 31.1186 17.5377C31.0261 17.3899 30.8933 17.2716 30.7359 17.1967V17.1967ZM28.1601 18.0308L23.4759 20.1667L18.7917 18.0308L23.4759 15.8767L28.1601 18.0308ZM16.5917 3.74L21.2759 5.89417L16.5917 8.04834L11.9167 5.89417L16.5917 3.74ZM9.71672 15.8675L14.4009 18.0217L9.71672 20.1667L5.03255 18.0308L9.71672 15.8675ZM15.6751 26.4L9.71672 29.15L3.75839 26.4V19.4608L9.33172 22C9.44989 22.0531 9.57799 22.0806 9.70755 22.0806C9.83712 22.0806 9.96521 22.0531 10.0834 22L15.6567 19.4333L15.6751 26.4ZM10.6334 14.2725V7.33334L16.2067 9.9C16.3274 9.95585 16.4588 9.98477 16.5917 9.98477C16.7247 9.98477 16.8561 9.95585 16.9767 9.9L22.5501 7.33334V14.2817L16.5917 17.0317L10.6334 14.2725ZM29.4342 26.4092L23.4759 29.1592L17.5084 26.4092V19.4517L23.0909 22C23.2078 22.0518 23.3343 22.0785 23.4621 22.0785C23.59 22.0785 23.7165 22.0518 23.8334 22L29.4067 19.4333L29.4342 26.4092Z" fill="black"/>
</svg>
