<svg width="34" height="34" viewBox="0 0 34 34" fill="none" xmlns="http://www.w3.org/2000/svg">
<path d="M29.75 19.8333V26.9167C29.75 27.6681 29.4515 28.3888 28.9201 28.9201C28.3888 29.4515 27.6681 29.75 26.9167 29.75H7.08333C6.33189 29.75 5.61122 29.4515 5.07986 28.9201C4.54851 28.3888 4.25 27.6681 4.25 26.9167V7.08333C4.25 6.33189 4.54851 5.61122 5.07986 5.07986C5.61122 4.54851 6.33189 4.25 7.08333 4.25H14.1667V7.08333H7.08333V26.9167H26.9167V19.8333H29.75Z" fill="white"/>
<path d="M29.7502 9.91667H24.0835V4.25H21.2502V9.91667H15.5835V12.75H21.2502V18.4167H24.0835V12.75H29.7502V9.91667Z" fill="white"/>
</svg>
