<svg width="46" height="46" viewBox="0 0 46 46" fill="none" xmlns="http://www.w3.org/2000/svg">
<path d="M45.1806 24.1747L35.2187 19.5768V6.40308C35.2142 6.12669 35.1304 5.85746 34.9775 5.62746C34.8246 5.39746 34.6089 5.21641 34.3562 5.10588L23.575 0.133288C23.3858 0.0454809 23.1797 0 22.9712 0C22.7627 0 22.5567 0.0454809 22.3675 0.133288L11.5862 5.10588C11.3367 5.22166 11.1256 5.40677 10.9778 5.63924C10.83 5.87172 10.7518 6.14181 10.7525 6.41749V19.5913L0.833754 24.1747C0.584233 24.2905 0.373062 24.4756 0.225285 24.708C0.0775083 24.9405 -0.000675947 25.2106 4.40268e-06 25.4863V39.5825C-0.000675947 39.8582 0.0775083 40.1283 0.225285 40.3608C0.373062 40.5932 0.584233 40.7783 0.833754 40.8941L11.615 45.8667C11.8042 45.9545 12.0102 46 12.2187 46C12.4273 46 12.6333 45.9545 12.8225 45.8667L23 41.168L33.1775 45.8667C33.3667 45.9545 33.5727 46 33.7812 46C33.9897 46 34.1958 45.9545 34.385 45.8667L45.1662 40.8941C45.4157 40.7783 45.6269 40.5932 45.7747 40.3608C45.9225 40.1283 46.0006 39.8582 46 39.5825V25.4863C46.0019 25.2122 45.9259 24.9432 45.7808 24.7109C45.6356 24.4786 45.4274 24.2926 45.1806 24.1747V24.1747ZM41.1412 25.4863L33.7956 28.8446L26.45 25.4863L33.7956 22.0992L41.1412 25.4863ZM23 3.01595L30.3456 6.40308L23 9.7902L15.6687 6.40308L23 3.01595ZM12.2187 22.0848L19.5644 25.4719L12.2187 28.8446L4.87313 25.4863L12.2187 22.0848ZM21.5625 38.6456L12.2187 42.9696L2.875 38.6456V27.7348L11.615 31.7273C11.8003 31.8108 12.0012 31.854 12.2044 31.854C12.4076 31.854 12.6084 31.8108 12.7937 31.7273L21.5337 27.6915L21.5625 38.6456ZM13.6562 19.5768V8.66597L22.3962 12.7017C22.5855 12.7895 22.7915 12.835 23 12.835C23.2085 12.835 23.4145 12.7895 23.6037 12.7017L32.3437 8.66597V19.5913L23 23.9152L13.6562 19.5768ZM43.1393 38.6601L33.7956 42.984L24.4375 38.6601V27.7204L33.1919 31.7273C33.3752 31.8087 33.5735 31.8508 33.774 31.8508C33.9746 31.8508 34.1729 31.8087 34.3562 31.7273L43.0962 27.6915L43.1393 38.6601Z" fill="#B4B4B4"/>
</svg>
